<mxfile host="65bd71144e">
    <diagram id="siYo8RyVhEAos5XAcq3H" name="Page-1">
        <mxGraphModel dx="1083" dy="806" grid="1" gridSize="10" guides="1" tooltips="1" connect="1" arrows="1" fold="1" page="1" pageScale="1" pageWidth="850" pageHeight="1100" math="0" shadow="0">
            <root>
                <mxCell id="0"/>
                <mxCell id="1" parent="0"/>
                <mxCell id="55" value="" style="whiteSpace=wrap;html=1;aspect=fixed;" vertex="1" parent="1">
                    <mxGeometry x="200" y="830" width="240" height="240" as="geometry"/>
                </mxCell>
                <mxCell id="11" value="" style="rounded=0;whiteSpace=wrap;html=1;" vertex="1" parent="1">
                    <mxGeometry x="80" y="307.5" width="120" height="60" as="geometry"/>
                </mxCell>
                <mxCell id="12" value="a = 10" style="text;html=1;align=center;verticalAlign=middle;resizable=0;points=[];autosize=1;strokeColor=none;fillColor=none;" vertex="1" parent="1">
                    <mxGeometry x="110" y="362.5" width="60" height="30" as="geometry"/>
                </mxCell>
                <mxCell id="13" value="b = 5" style="text;html=1;align=center;verticalAlign=middle;resizable=0;points=[];autosize=1;strokeColor=none;fillColor=none;" vertex="1" parent="1">
                    <mxGeometry x="200" y="322.5" width="50" height="30" as="geometry"/>
                </mxCell>
                <mxCell id="14" value="" style="shape=parallelogram;perimeter=parallelogramPerimeter;whiteSpace=wrap;html=1;fixedSize=1;" vertex="1" parent="1">
                    <mxGeometry x="290" y="480" width="120" height="60" as="geometry"/>
                </mxCell>
                <mxCell id="15" value="a" style="text;html=1;align=center;verticalAlign=middle;resizable=0;points=[];autosize=1;strokeColor=none;fillColor=none;" vertex="1" parent="1">
                    <mxGeometry x="325" y="535" width="30" height="30" as="geometry"/>
                </mxCell>
                <mxCell id="16" value="" style="endArrow=classic;startArrow=classic;html=1;" edge="1" parent="1">
                    <mxGeometry width="50" height="50" relative="1" as="geometry">
                        <mxPoint x="420" y="540" as="sourcePoint"/>
                        <mxPoint x="420" y="480" as="targetPoint"/>
                    </mxGeometry>
                </mxCell>
                <mxCell id="17" value="h" style="text;html=1;align=center;verticalAlign=middle;resizable=0;points=[];autosize=1;strokeColor=none;fillColor=none;" vertex="1" parent="1">
                    <mxGeometry x="415" y="495" width="30" height="30" as="geometry"/>
                </mxCell>
                <mxCell id="18" value="" style="endArrow=none;html=1;" edge="1" parent="1">
                    <mxGeometry width="50" height="50" relative="1" as="geometry">
                        <mxPoint x="70" y="540" as="sourcePoint"/>
                        <mxPoint x="110" y="470" as="targetPoint"/>
                    </mxGeometry>
                </mxCell>
                <mxCell id="19" value="" style="endArrow=none;html=1;" edge="1" parent="1">
                    <mxGeometry width="50" height="50" relative="1" as="geometry">
                        <mxPoint x="110" y="470" as="sourcePoint"/>
                        <mxPoint x="170" y="470" as="targetPoint"/>
                    </mxGeometry>
                </mxCell>
                <mxCell id="20" value="" style="endArrow=none;html=1;entryX=0.963;entryY=-2.181;entryDx=0;entryDy=0;entryPerimeter=0;" edge="1" parent="1" target="19">
                    <mxGeometry width="50" height="50" relative="1" as="geometry">
                        <mxPoint x="210" y="540" as="sourcePoint"/>
                        <mxPoint x="180" y="480" as="targetPoint"/>
                    </mxGeometry>
                </mxCell>
                <mxCell id="21" value="" style="endArrow=none;html=1;exitX=0.941;exitY=1.011;exitDx=0;exitDy=0;exitPerimeter=0;" edge="1" parent="1" source="20">
                    <mxGeometry width="50" height="50" relative="1" as="geometry">
                        <mxPoint x="120" y="621.25" as="sourcePoint"/>
                        <mxPoint x="70" y="540" as="targetPoint"/>
                    </mxGeometry>
                </mxCell>
                <mxCell id="22" value="a" style="text;html=1;align=center;verticalAlign=middle;resizable=0;points=[];autosize=1;strokeColor=none;fillColor=none;" vertex="1" parent="1">
                    <mxGeometry x="125" y="535" width="30" height="30" as="geometry"/>
                </mxCell>
                <mxCell id="23" value="b" style="text;html=1;align=center;verticalAlign=middle;resizable=0;points=[];autosize=1;strokeColor=none;fillColor=none;" vertex="1" parent="1">
                    <mxGeometry x="125" y="445" width="30" height="30" as="geometry"/>
                </mxCell>
                <mxCell id="24" value="" style="endArrow=classic;startArrow=classic;html=1;" edge="1" parent="1">
                    <mxGeometry width="50" height="50" relative="1" as="geometry">
                        <mxPoint x="225" y="540" as="sourcePoint"/>
                        <mxPoint x="225" y="465" as="targetPoint"/>
                    </mxGeometry>
                </mxCell>
                <mxCell id="25" value="h" style="text;html=1;align=center;verticalAlign=middle;resizable=0;points=[];autosize=1;strokeColor=none;fillColor=none;" vertex="1" parent="1">
                    <mxGeometry x="220" y="480" width="30" height="30" as="geometry"/>
                </mxCell>
                <mxCell id="26" value="" style="endArrow=classic;html=1;" edge="1" parent="1">
                    <mxGeometry width="50" height="50" relative="1" as="geometry">
                        <mxPoint x="80" y="367.5" as="sourcePoint"/>
                        <mxPoint x="390" y="367.5" as="targetPoint"/>
                    </mxGeometry>
                </mxCell>
                <mxCell id="27" value="" style="endArrow=classic;html=1;" edge="1" parent="1">
                    <mxGeometry width="50" height="50" relative="1" as="geometry">
                        <mxPoint x="80" y="367.5" as="sourcePoint"/>
                        <mxPoint x="80" y="147.5" as="targetPoint"/>
                    </mxGeometry>
                </mxCell>
                <mxCell id="28" value="x" style="text;html=1;align=center;verticalAlign=middle;resizable=0;points=[];autosize=1;strokeColor=none;fillColor=none;" vertex="1" parent="1">
                    <mxGeometry x="385" y="362.5" width="30" height="30" as="geometry"/>
                </mxCell>
                <mxCell id="29" value="y" style="text;html=1;align=center;verticalAlign=middle;resizable=0;points=[];autosize=1;strokeColor=none;fillColor=none;" vertex="1" parent="1">
                    <mxGeometry x="45" y="122.5" width="30" height="30" as="geometry"/>
                </mxCell>
                <mxCell id="30" value="" style="endArrow=classic;html=1;" edge="1" parent="1">
                    <mxGeometry width="50" height="50" relative="1" as="geometry">
                        <mxPoint x="485" y="365" as="sourcePoint"/>
                        <mxPoint x="795" y="365" as="targetPoint"/>
                    </mxGeometry>
                </mxCell>
                <mxCell id="31" value="" style="endArrow=classic;html=1;" edge="1" parent="1">
                    <mxGeometry width="50" height="50" relative="1" as="geometry">
                        <mxPoint x="485" y="365" as="sourcePoint"/>
                        <mxPoint x="485" y="145" as="targetPoint"/>
                    </mxGeometry>
                </mxCell>
                <mxCell id="32" value="x" style="text;html=1;align=center;verticalAlign=middle;resizable=0;points=[];autosize=1;strokeColor=none;fillColor=none;" vertex="1" parent="1">
                    <mxGeometry x="790" y="360" width="30" height="30" as="geometry"/>
                </mxCell>
                <mxCell id="33" value="y" style="text;html=1;align=center;verticalAlign=middle;resizable=0;points=[];autosize=1;strokeColor=none;fillColor=none;" vertex="1" parent="1">
                    <mxGeometry x="450" y="120" width="30" height="30" as="geometry"/>
                </mxCell>
                <mxCell id="34" value="" style="ellipse;whiteSpace=wrap;html=1;aspect=fixed;" vertex="1" parent="1">
                    <mxGeometry x="175" y="347.5" width="15" height="15" as="geometry"/>
                </mxCell>
                <mxCell id="37" value="" style="triangle;whiteSpace=wrap;html=1;" vertex="1" parent="1">
                    <mxGeometry x="325" y="645" width="60" height="80" as="geometry"/>
                </mxCell>
                <mxCell id="38" value="" style="shape=hexagon;perimeter=hexagonPerimeter2;whiteSpace=wrap;html=1;fixedSize=1;" vertex="1" parent="1">
                    <mxGeometry x="80" y="645" width="120" height="80" as="geometry"/>
                </mxCell>
                <mxCell id="39" value="r = 1" style="text;html=1;align=center;verticalAlign=middle;resizable=0;points=[];autosize=1;strokeColor=none;fillColor=none;" vertex="1" parent="1">
                    <mxGeometry x="145" y="252.5" width="50" height="30" as="geometry"/>
                </mxCell>
                <mxCell id="40" value="(0, 0)" style="text;html=1;align=center;verticalAlign=middle;resizable=0;points=[];autosize=1;strokeColor=none;fillColor=none;" vertex="1" parent="1">
                    <mxGeometry x="35" y="367.5" width="50" height="30" as="geometry"/>
                </mxCell>
                <mxCell id="41" value="(10, 0)" style="text;html=1;align=center;verticalAlign=middle;resizable=0;points=[];autosize=1;strokeColor=none;fillColor=none;" vertex="1" parent="1">
                    <mxGeometry x="185" y="367.5" width="60" height="30" as="geometry"/>
                </mxCell>
                <mxCell id="42" value="(10, 5)" style="text;html=1;align=center;verticalAlign=middle;resizable=0;points=[];autosize=1;strokeColor=none;fillColor=none;" vertex="1" parent="1">
                    <mxGeometry x="190" y="282.5" width="60" height="30" as="geometry"/>
                </mxCell>
                <mxCell id="43" value="(0, 5)" style="text;html=1;align=center;verticalAlign=middle;resizable=0;points=[];autosize=1;strokeColor=none;fillColor=none;" vertex="1" parent="1">
                    <mxGeometry x="30" y="282.5" width="50" height="30" as="geometry"/>
                </mxCell>
                <mxCell id="44" value="" style="ellipse;whiteSpace=wrap;html=1;aspect=fixed;" vertex="1" parent="1">
                    <mxGeometry x="155" y="347.5" width="15" height="15" as="geometry"/>
                </mxCell>
                <mxCell id="45" value="" style="ellipse;whiteSpace=wrap;html=1;aspect=fixed;" vertex="1" parent="1">
                    <mxGeometry x="80" y="310" width="40" height="40" as="geometry"/>
                </mxCell>
                <mxCell id="47" value="" style="ellipse;whiteSpace=wrap;html=1;aspect=fixed;" vertex="1" parent="1">
                    <mxGeometry x="202.5" y="830" width="230" height="230" as="geometry"/>
                </mxCell>
                <mxCell id="48" value="" style="ellipse;whiteSpace=wrap;html=1;aspect=fixed;" vertex="1" parent="1">
                    <mxGeometry x="325" y="655" width="15" height="15" as="geometry"/>
                </mxCell>
                <mxCell id="49" value="" style="ellipse;whiteSpace=wrap;html=1;aspect=fixed;" vertex="1" parent="1">
                    <mxGeometry x="310" y="127.5" width="15" height="15" as="geometry"/>
                </mxCell>
                <mxCell id="50" value="" style="ellipse;whiteSpace=wrap;html=1;aspect=fixed;" vertex="1" parent="1">
                    <mxGeometry x="320" y="142.5" width="15" height="15" as="geometry"/>
                </mxCell>
                <mxCell id="51" value="" style="ellipse;whiteSpace=wrap;html=1;aspect=fixed;" vertex="1" parent="1">
                    <mxGeometry x="305" y="142.5" width="15" height="15" as="geometry"/>
                </mxCell>
                <mxCell id="52" value="" style="ellipse;whiteSpace=wrap;html=1;aspect=fixed;" vertex="1" parent="1">
                    <mxGeometry x="342.5" y="157.5" width="15" height="15" as="geometry"/>
                </mxCell>
                <mxCell id="53" value="" style="endArrow=classic;startArrow=classic;html=1;" edge="1" parent="1">
                    <mxGeometry width="50" height="50" relative="1" as="geometry">
                        <mxPoint x="315" y="944.71" as="sourcePoint"/>
                        <mxPoint x="425" y="944.71" as="targetPoint"/>
                    </mxGeometry>
                </mxCell>
                <mxCell id="54" value="1.5" style="edgeLabel;html=1;align=center;verticalAlign=middle;resizable=0;points=[];" vertex="1" connectable="0" parent="53">
                    <mxGeometry x="0.3684" y="-2" relative="1" as="geometry">
                        <mxPoint x="-20" y="-2" as="offset"/>
                    </mxGeometry>
                </mxCell>
                <mxCell id="56" value="" style="whiteSpace=wrap;html=1;aspect=fixed;" vertex="1" parent="1">
                    <mxGeometry x="302.5" y="312.5" width="30" height="30" as="geometry"/>
                </mxCell>
                <mxCell id="59" value="" style="ellipse;whiteSpace=wrap;html=1;aspect=fixed;" vertex="1" parent="1">
                    <mxGeometry x="120" y="327.5" width="40" height="40" as="geometry"/>
                </mxCell>
                <mxCell id="60" value="" style="ellipse;whiteSpace=wrap;html=1;aspect=fixed;" vertex="1" parent="1">
                    <mxGeometry x="170" y="307.5" width="30" height="30" as="geometry"/>
                </mxCell>
                <mxCell id="61" value="" style="ellipse;whiteSpace=wrap;html=1;aspect=fixed;" vertex="1" parent="1">
                    <mxGeometry x="170" y="337.5" width="30" height="30" as="geometry"/>
                </mxCell>
                <mxCell id="62" value="" style="ellipse;whiteSpace=wrap;html=1;aspect=fixed;" vertex="1" parent="1">
                    <mxGeometry x="140" y="337.5" width="30" height="30" as="geometry"/>
                </mxCell>
            </root>
        </mxGraphModel>
    </diagram>
</mxfile>